<?xml version="1.0" encoding="UTF-8"?>
<svg version="1.1" xmlns="http://www.w3.org/2000/svg" width="512" height="512">
<path d="M0 0 C6.67690801 5.38427491 12.46714163 11.46257238 18 18 C19.23363281 17.49339844 19.23363281 17.49339844 20.4921875 16.9765625 C41.80516619 8.46121536 60.5031908 9.69174327 82 17 C82.29769287 16.39937744 82.59538574 15.79875488 82.90209961 15.17993164 C84.24516208 12.47308771 85.59128848 9.76777908 86.9375 7.0625 C87.64036133 5.64420898 87.64036133 5.64420898 88.35742188 4.19726562 C89.0293457 2.84858398 89.0293457 2.84858398 89.71484375 1.47265625 C90.33540649 0.22367554 90.33540649 0.22367554 90.96850586 -1.05053711 C92 -3 92 -3 93 -4 C95.72724279 -4.10099488 98.42862523 -4.13970529 101.15625 -4.1328125 C101.97371704 -4.13376923 102.79118408 -4.13472595 103.63342285 -4.13571167 C105.36515378 -4.13639345 107.09688724 -4.13453929 108.82861328 -4.13037109 C111.48866482 -4.12502279 114.1485475 -4.13031612 116.80859375 -4.13671875 C118.48697954 -4.13605797 120.16536523 -4.1347768 121.84375 -4.1328125 C122.64478149 -4.13483673 123.44581299 -4.13686096 124.27111816 -4.13894653 C129.88504921 -4.11495079 129.88504921 -4.11495079 131 -3 C132.1827067 3.49965365 128.32155652 8.0015612 124.9375 13.1875 C124.34493408 14.11844482 123.75236816 15.04938965 123.1418457 16.00854492 C121.43904192 18.67971487 119.72031783 21.34009181 118 24 C117.19071285 25.27217028 116.38310372 26.54541165 115.578125 27.8203125 C114.06184572 30.22004376 112.53697351 32.61349931 111 35 C111.94359375 34.96519531 112.8871875 34.93039063 113.859375 34.89453125 C130.28745795 34.54815601 143.58077649 38.14262606 155.74609375 49.6796875 C160.44521564 54.51725839 163.59976885 58.97371128 166.0625 65.25 C167.6407559 68.58470199 168.47598787 69.75235043 171.8515625 71.34765625 C174.10645643 71.99983283 176.37603247 72.60294093 178.65625 73.16015625 C192.32287948 76.59277931 203.21344542 86.60358679 211 98 C219.97846676 113.91815505 222.69761328 131.17680444 218.375 148.9375 C213.35025872 165.28094916 202.67193902 178.24154333 188 187 C174.4122616 193.89974768 161.76852231 194.27541095 146.875 194.125 C145.13802599 194.11495032 143.40104636 194.10582798 141.6640625 194.09765625 C137.4425675 194.07579974 133.22134693 194.04137951 129 194 C129.41572266 194.99580078 129.41572266 194.99580078 129.83984375 196.01171875 C130.20207031 196.89472656 130.56429688 197.77773438 130.9375 198.6875 C131.29714844 199.55761719 131.65679687 200.42773438 132.02734375 201.32421875 C136.60727987 213.92364141 135.42674129 230.96311589 130 243 C122.82242497 257.83510948 110.5405719 268.5683438 95 274 C91.02414623 275.11670469 87.03007544 276.09988163 83 277 C83.40992188 277.86882812 83.81984375 278.73765625 84.2421875 279.6328125 C85.05042969 281.36144531 85.05042969 281.36144531 85.875 283.125 C86.40867187 284.26195312 86.94234375 285.39890625 87.4921875 286.5703125 C91.12923608 294.84318466 92.80752855 302.93006691 90.16015625 311.8203125 C86.86063978 319.08591443 81.61582245 324.60940369 74.3125 327.9375 C66.93390572 330.2424047 58.77028362 330.21646682 51.6875 327.0625 C44.93036036 323.19340373 39.49813518 317.42403553 37 310 C33.90788215 297.88726769 39.62679317 287.74641365 45 277 C27.18 277 9.36 277 -9 277 C-6.69 281.95 -4.38 286.9 -2 292 C0.1573972 300.62958878 0.12664662 308.95841501 -4.38671875 316.77734375 C-8.8095454 322.87077805 -14.4941402 327.57451738 -22 329 C-30.71325498 329.99548099 -37.82750625 329.29078329 -45 324 C-51.41101131 318.04153067 -55.23589237 312.38696309 -56.0234375 303.578125 C-55.93384136 293.72254938 -51.35520187 285.71040374 -47 277 C-64.82 277 -82.64 277 -101 277 C-98.69 281.95 -96.38 286.9 -94 292 C-91.8426028 300.62958878 -91.87335338 308.95841501 -96.38671875 316.77734375 C-100.81452695 322.87764124 -106.49386517 327.54552405 -114 329 C-122.89940656 329.98608383 -130.72603635 328.90738958 -138.03515625 323.4921875 C-143.81688557 318.21375097 -147.46997005 311.0900656 -148.09375 303.21484375 C-147.68816174 293.63282101 -143.52538222 285.25992094 -139 277 C-140.01578125 276.96261719 -141.0315625 276.92523438 -142.078125 276.88671875 C-159.13771886 276.13304863 -175.36210848 272.39010406 -188.04296875 260.15625 C-200.55516941 246.37035226 -204.96969563 231.29565474 -204.14355469 213.03466797 C-203.13431735 198.73027341 -195.516671 185.51189351 -185 176 C-178.15676526 170.85768488 -169.78796772 165 -161 165 C-161.03609375 163.84242188 -161.0721875 162.68484375 -161.109375 161.4921875 C-161.10560558 157.20823677 -160.35297263 153.25292189 -159.25 149.125 C-159.06735596 148.42737549 -158.88471191 147.72975098 -158.6965332 147.01098633 C-153.03540673 125.98081456 -139.27583661 108.14738417 -120.59375 96.77734375 C-119 96 -119 96 -117 96 C-117.34933594 94.85402344 -117.69867188 93.70804687 -118.05859375 92.52734375 C-118.51849292 90.9974751 -118.97811354 89.46752269 -119.4375 87.9375 C-119.66759766 87.18533203 -119.89769531 86.43316406 -120.13476562 85.65820312 C-126.12695212 65.59740484 -123.49004836 44.39471011 -114.02539062 25.85742188 C-111.23352921 20.80016434 -107.75858609 16.36480965 -104 12 C-103.31292969 11.20078125 -102.62585938 10.4015625 -101.91796875 9.578125 C-75.80980258 -18.51600558 -30.97519602 -21.89112411 0 0 Z " fill="#F1F2F2" transform="translate(248,128)"/>
<path d="M0 0 C0.80103149 0.00202423 1.60206299 0.00404846 2.42736816 0.00613403 C3.24483521 0.00517731 4.06230225 0.00422058 4.90454102 0.00323486 C6.63627194 0.00255308 8.3680054 0.00440724 10.09973145 0.00857544 C12.75978298 0.01392374 15.41966566 0.00863041 18.07971191 0.00222778 C19.75809771 0.00288857 21.43648339 0.00416973 23.11486816 0.00613403 C23.91589966 0.0041098 24.71693115 0.00208557 25.54223633 0 C31.15616738 0.02399575 31.15616738 0.02399575 32.27111816 1.13894653 C33.45382487 7.63860018 29.59267468 12.14050774 26.20861816 17.32644653 C25.61605225 18.25739136 25.02348633 19.18833618 24.41296387 20.14749146 C22.71016008 22.8186614 20.991436 25.47903834 19.27111816 28.13894653 C18.46183102 29.41111681 17.65422188 30.68435819 16.84924316 31.95925903 C15.33296388 34.35899029 13.80809168 36.75244584 12.27111816 39.13894653 C13.21471191 39.10414185 14.15830566 39.06933716 15.13049316 39.03347778 C31.55857611 38.68710254 44.85189465 42.28157259 57.01721191 53.81863403 C61.71633381 58.65620493 64.87088701 63.11265781 67.33361816 69.38894653 C68.91187407 72.72364852 69.74710603 73.89129696 73.12268066 75.48660278 C75.37757459 76.13877936 77.64715063 76.74188746 79.92736816 77.29910278 C93.59399765 80.73172584 104.48456359 90.74253332 112.27111816 102.13894653 C121.24958493 118.05710158 123.96873144 135.31575097 119.64611816 153.07644653 C114.62137688 169.4198957 103.94305719 182.38048986 89.27111816 191.13894653 C76.72956488 197.50744956 64.50429772 198.64384445 50.66589355 198.83914185 C48.93846109 198.87245906 47.21131526 198.92730393 45.48522949 199.00320435 C31.09256905 199.62986065 31.09256905 199.62986065 26.60192871 195.95413208 C24.81326957 193.40895431 23.50182561 190.98811463 22.27111816 188.13894653 C15.40487618 177.95796705 1.96844106 171.73835162 -9.72888184 169.13894653 C-12.72328262 168.72426301 -15.71725543 168.39845176 -18.72888184 168.13894653 C-19.03181152 167.1605481 -19.33474121 166.18214966 -19.64685059 165.17410278 C-24.73363879 149.09640199 -31.84836195 136.12023119 -46.72888184 127.13894653 C-47.33989746 126.75093872 -47.95091309 126.36293091 -48.58044434 125.96316528 C-60.65298683 119.07596593 -76.88675315 117.05347927 -90.34216309 119.90457153 C-95.2576903 121.33330609 -99.81718286 123.08411452 -104.35388184 125.45144653 C-105.46763184 126.00832153 -106.58138184 126.56519653 -107.72888184 127.13894653 C-111.25933277 125.96212956 -111.83809011 124.96503794 -113.97888184 122.01394653 C-124.29480353 108.47296443 -137.67321923 100.49083407 -153.72888184 95.13894653 C-150.82843754 87.57033154 -140.85271642 82.42724684 -133.85388184 79.20144653 C-132.15297362 78.49577646 -130.44552006 77.80543902 -128.72888184 77.13894653 C-127.67700684 76.70582153 -126.62513184 76.27269653 -125.54138184 75.82644653 C-121.83301253 74.91995626 -118.5417401 75.00746866 -114.72888184 75.13894653 C-114.77013184 74.12058716 -114.81138184 73.10222778 -114.85388184 72.05300903 C-114.42266816 58.5506308 -105.29979244 43.32970415 -95.72888184 34.13894653 C-80.29629814 20.28848023 -64.01842028 14.02344375 -43.43591309 14.74050903 C-34.18641816 15.33921887 -25.46078435 18.17036712 -16.72888184 21.13894653 C-16.28234253 20.2380127 -16.28234253 20.2380127 -15.82678223 19.31887817 C-14.48371975 16.61203424 -13.13759335 13.90672561 -11.79138184 11.20144653 C-11.32280762 10.25591919 -10.8542334 9.31039185 -10.37145996 8.33621216 C-9.92351074 7.43709106 -9.47556152 6.53796997 -9.01403809 5.61160278 C-8.60032959 4.77894897 -8.18662109 3.94629517 -7.76037598 3.08840942 C-5.80213752 -0.61254539 -4.04069227 0.01727122 0 0 Z " fill="#478CF6" transform="translate(346.7288818359375,123.86105346679688)"/>
<path d="M0 0 C6.57134717 5.29915038 12.89250685 11.25183168 18 18 C18 18.66 18 19.32 18 20 C16.05859375 21.515625 16.05859375 21.515625 13.4375 23.25 C-1.26589189 33.33528429 -11.12814241 47.16953513 -14.9375 64.875 C-15.31152889 66.91312149 -15.67346784 68.9537318 -16 71 C-16.59425781 71.09796875 -17.18851562 71.1959375 -17.80078125 71.296875 C-30.37948997 73.56612883 -42.50188404 77.91277776 -51.3125 87.5625 C-53.68955861 89.68227697 -54.6341727 90.00945676 -57.87109375 89.92578125 C-60.22989036 89.54128377 -62.58269093 89.11893094 -64.9296875 88.66796875 C-80.30238447 85.85810973 -97.90905647 87.71724282 -112.08203125 94.23046875 C-114 95 -114 95 -117 95 C-117.81942948 92.48123707 -118.63065069 89.9602933 -119.4375 87.4375 C-119.66759766 86.73302734 -119.89769531 86.02855469 -120.13476562 85.30273438 C-126.4081433 65.57341618 -123.33368372 44.08845747 -114.02539062 25.85742188 C-111.23352921 20.80016434 -107.75858609 16.36480965 -104 12 C-103.31292969 11.20078125 -102.62585938 10.4015625 -101.91796875 9.578125 C-75.80980258 -18.51600558 -30.97519602 -21.89112411 0 0 Z " fill="#F69219" transform="translate(248,128)"/>
<path d="M0 0 C0.80103149 0.00202423 1.60206299 0.00404846 2.42736816 0.00613403 C3.24483521 0.00517731 4.06230225 0.00422058 4.90454102 0.00323486 C6.63627194 0.00255308 8.3680054 0.00440724 10.09973145 0.00857544 C12.75978298 0.01392374 15.41966566 0.00863041 18.07971191 0.00222778 C19.75809771 0.00288857 21.43648339 0.00416973 23.11486816 0.00613403 C23.91589966 0.0041098 24.71693115 0.00208557 25.54223633 0 C31.15616738 0.02399575 31.15616738 0.02399575 32.27111816 1.13894653 C33.45380051 7.63846634 29.59275176 12.14069448 26.20861816 17.32644653 C25.61242676 18.26246704 25.01623535 19.19848755 24.40197754 20.16287231 C23.22580695 22.00697184 22.04416545 23.84759564 20.85656738 25.68435669 C19.56422195 27.68516373 18.28689241 29.69309335 17.02502441 31.71316528 C14.5894884 35.60242881 12.12151165 39.36883372 9.33361816 43.01394653 C7.14576297 46.32887865 7.0591295 47.34884624 7.27111816 51.13894653 C8.4368335 51.17653076 8.4368335 51.17653076 9.62609863 51.21487427 C13.13294886 51.3306145 16.63951562 51.45344006 20.14611816 51.57644653 C21.98109863 51.63542114 21.98109863 51.63542114 23.85314941 51.69558716 C25.60305176 51.75842896 25.60305176 51.75842896 27.38830566 51.82254028 C28.46708984 51.859198 29.54587402 51.89585571 30.65734863 51.93362427 C33.27111816 52.13894653 33.27111816 52.13894653 35.27111816 53.13894653 C34.91020215 58.25825523 32.0717865 60.95995929 28.64611816 64.45144653 C27.5412127 65.61089919 26.43704177 66.77105229 25.33361816 67.93191528 C24.80123535 68.48669556 24.26885254 69.04147583 23.72033691 69.61306763 C21.97435531 71.45140743 20.30056849 73.34303425 18.64611816 75.26394653 C15.90330596 78.43490504 13.096892 81.54162686 10.27111816 84.63894653 C6.82154632 88.42150872 3.41646806 92.23458623 0.06018066 96.09988403 C-2.79194873 99.35056426 -5.70589205 102.54528636 -8.61560059 105.74441528 C-10.80417203 108.10838873 -10.80417203 108.10838873 -12.54528809 110.92019653 C-14.72888184 113.13894653 -14.72888184 113.13894653 -18.18200684 113.62722778 C-19.43497559 113.56921997 -20.68794434 113.51121216 -21.97888184 113.45144653 C-23.24216309 113.40632935 -24.50544434 113.36121216 -25.80700684 113.31472778 C-26.77122559 113.25671997 -27.73544434 113.19871216 -28.72888184 113.13894653 C-29.73156671 110.597742 -29.94672997 108.77488415 -29.05563354 106.1736145 C-27.94159748 103.77037883 -26.7505057 101.42319637 -25.52185059 99.07644653 C-25.08125809 98.20753784 -24.64066559 97.33862915 -24.1867218 96.44338989 C-22.77632272 93.66835428 -21.34702534 90.90359118 -19.91638184 88.13894653 C-18.50060148 85.3723409 -17.08872622 82.60377897 -15.67817688 79.83450317 C-14.79953838 78.11292282 -13.91711268 76.39326872 -13.03044128 74.67581177 C-11.08036854 70.88522722 -9.20491079 67.14653972 -7.72888184 63.13894653 C-8.47573242 63.1191272 -9.22258301 63.09930786 -9.99206543 63.07888794 C-13.36303788 62.98386442 -16.73337113 62.87409394 -20.10388184 62.76394653 C-21.27950684 62.73300903 -22.45513184 62.70207153 -23.66638184 62.67019653 C-24.78786621 62.63152466 -25.90935059 62.59285278 -27.06481934 62.55300903 C-28.10170898 62.52158813 -29.13859863 62.49016724 -30.20690918 62.45779419 C-32.72888184 62.13894653 -32.72888184 62.13894653 -34.72888184 60.13894653 C-34.45362727 55.40800872 -31.97069646 51.56996458 -29.72888184 47.51394653 C-23.55566248 36.10073739 -17.97874371 24.4011337 -12.35583496 12.71072388 C-11.99163956 11.95525269 -11.62744415 11.19978149 -11.25221252 10.42141724 C-10.55901483 8.98291884 -9.86772781 7.54349778 -9.17857361 6.10305786 C-6.49941293 0.542326 -6.24972709 0.02671334 0 0 Z " fill="#FDA81B" transform="translate(346.7288818359375,123.86105346679688)"/>
<path d="M0 0 C6.57134717 5.29915038 12.89250685 11.25183168 18 18 C18 18.66 18 19.32 18 20 C15.98828125 21.5859375 15.98828125 21.5859375 13.3125 23.375 C9.75341922 25.79315559 6.30898567 28.24251194 3 31 C2.34 30.34 1.68 29.68 1 29 C0.53722656 28.54367188 0.07445312 28.08734375 -0.40234375 27.6171875 C-1.52483717 26.48097166 -2.61912509 25.31653165 -3.69140625 24.1328125 C-13.30968695 13.81173468 -26.14143469 7.45004897 -40.31640625 6.69140625 C-57.27317307 6.23175174 -71.81827266 10.47142331 -84.90234375 21.62109375 C-95.57393745 31.73225364 -101.33209682 45.2150061 -102.23828125 59.84765625 C-102.45700585 68.41740751 -101.80428522 75.4318615 -98.875 83.55859375 C-98 86 -98 86 -98 88 C-96.515 88.495 -96.515 88.495 -95 89 C-95.78503906 89.18175781 -96.57007813 89.36351562 -97.37890625 89.55078125 C-104.36225938 91.18369293 -104.36225938 91.18369293 -111.0625 93.6875 C-114 95 -114 95 -117 95 C-117.81942948 92.48123707 -118.63065069 89.9602933 -119.4375 87.4375 C-119.66759766 86.73302734 -119.89769531 86.02855469 -120.13476562 85.30273438 C-126.4081433 65.57341618 -123.33368372 44.08845747 -114.02539062 25.85742188 C-111.23352921 20.80016434 -107.75858609 16.36480965 -104 12 C-103.31292969 11.20078125 -102.62585938 10.4015625 -101.91796875 9.578125 C-75.80980258 -18.51600558 -30.97519602 -21.89112411 0 0 Z " fill="#FEA81A" transform="translate(248,128)"/>
<path d="M0 0 C2.54775598 0.97835055 3.13287782 1.92251353 4.51049805 4.25219727 C4.9480542 4.97914795 5.38561035 5.70609863 5.83642578 6.45507812 C6.52007202 7.63662476 6.52007202 7.63662476 7.2175293 8.84204102 C7.69585205 9.64971924 8.1741748 10.45739746 8.66699219 11.28955078 C10.13438025 13.77883072 11.58251889 16.27866398 13.0300293 18.77954102 C13.88901377 20.23550066 14.7483678 21.69124235 15.6081543 23.14672852 C22.28606185 34.57252818 27.9525656 45.08359654 26.0300293 58.77954102 C23.5551212 66.95700234 18.45516088 72.54754773 11.1940918 76.87329102 C4.46620793 79.93916214 -3.72843421 80.01441873 -10.74731445 77.97094727 C-17.84206821 74.81165014 -23.8532247 69.3599245 -27.13793945 62.25219727 C-30.35895697 52.67987759 -28.50142606 43.94986074 -24.2199707 34.97094727 C-19.9477638 26.4856291 -14.99570058 18.37320106 -10.0324707 10.27954102 C-9.4647998 9.35278564 -8.89712891 8.42603027 -8.31225586 7.47119141 C-7.77777832 6.61388428 -7.24330078 5.75657715 -6.69262695 4.87329102 C-6.21575439 4.10694336 -5.73888184 3.3405957 -5.24755859 2.55102539 C-3.62815806 0.30558869 -2.78290065 -0.31143379 0 0 Z " fill="#478CF6" transform="translate(220.969970703125,378.220458984375)"/>
<path d="M0 0 C3.2534843 1.42243966 4.24554169 3.75180984 6.05444336 6.76318359 C6.41425797 7.35716949 6.77407257 7.9511554 7.14479065 8.56314087 C7.90612357 9.82567285 8.66142843 11.09185653 9.41113281 12.36132812 C10.53825186 14.26824374 11.68401207 16.16280288 12.83374023 18.05615234 C20.59917198 30.9514651 27.85351032 43.42449236 26.12084961 58.92724609 C23.68651225 67.10209062 18.52522662 72.70761723 11.28491211 77.02099609 C4.55702825 80.08686722 -3.6376139 80.16212381 -10.65649414 78.11865234 C-17.7512479 74.95935522 -23.76240439 69.50762958 -27.04711914 62.39990234 C-30.26813666 52.82758267 -28.41060575 44.09756582 -24.12915039 35.11865234 C-19.85694349 26.63333418 -14.90488027 18.52090613 -9.94165039 10.42724609 C-9.37397949 9.50049072 -8.80630859 8.57373535 -8.22143555 7.61889648 C-7.68695801 6.76158936 -7.15248047 5.90428223 -6.60180664 5.02099609 C-6.12493408 4.25464844 -5.64806152 3.48830078 -5.15673828 2.69873047 C-3.58741646 0.52273217 -2.70266953 -0.10463759 0 0 Z " fill="#478CF6" transform="translate(312.879150390625,378.07275390625)"/>
<path d="M0 0 C2.54775598 0.97835055 3.13287782 1.92251353 4.51049805 4.25219727 C4.9480542 4.97914795 5.38561035 5.70609863 5.83642578 6.45507812 C6.52007202 7.63662476 6.52007202 7.63662476 7.2175293 8.84204102 C7.69585205 9.64971924 8.1741748 10.45739746 8.66699219 11.28955078 C10.13438025 13.77883072 11.58251889 16.27866398 13.0300293 18.77954102 C13.88901377 20.23550066 14.7483678 21.69124235 15.6081543 23.14672852 C22.28606185 34.57252818 27.9525656 45.08359654 26.0300293 58.77954102 C23.55945394 66.94268633 18.45482371 72.60847122 11.15893555 76.87329102 C3.81301627 80.17208221 -4.79411349 79.86133154 -12.2824707 77.21704102 C-19.7182262 73.80351602 -24.29648051 68.60958721 -27.24731445 61.02172852 C-30.50808133 50.90453832 -27.86298998 42.19660539 -23.19628906 32.93554688 C-19.12706842 25.20032918 -14.60009567 17.72807848 -10.0324707 10.27954102 C-9.4647998 9.35278564 -8.89712891 8.42603027 -8.31225586 7.47119141 C-7.77777832 6.61388428 -7.24330078 5.75657715 -6.69262695 4.87329102 C-6.21575439 4.10694336 -5.73888184 3.3405957 -5.24755859 2.55102539 C-3.62815806 0.30558869 -2.78290065 -0.31143379 0 0 Z " fill="#478CF6" transform="translate(128.969970703125,378.220458984375)"/>
<path d="M0 0 C6.57322271 4.57376333 11.88643067 10.96221072 14.48046875 18.609375 C14.8980906 21.91295083 13.81032344 24.45572268 12.58203125 27.4921875 C11.41042329 30.54381753 11.08680329 33.44029908 10.7421875 36.6796875 C9.85080078 36.82664062 9.85080078 36.82664062 8.94140625 36.9765625 C-3.63730247 39.24581633 -15.75969654 43.59246526 -24.5703125 53.2421875 C-27.0631268 55.51058786 -28.16695853 55.67694394 -31.62109375 55.78125 C-38.60440737 55.01257789 -42.61960883 54.22090428 -47.2578125 48.6796875 C-52.15890781 41.12815091 -54.28849255 32.61659681 -53.2578125 23.6796875 C-50.96641212 13.9515266 -46.05908627 6.11226765 -37.8828125 0.3046875 C-25.4530339 -7.25396165 -12.65027005 -7.39756276 0 0 Z " fill="#EE7816" transform="translate(221.2578125,162.3203125)"/>
<path d="M0 0 C4.43712717 1.70276309 6.02419817 5.23236791 8.4140625 9.1953125 C9.18423706 10.44151367 9.18423706 10.44151367 9.9699707 11.71289062 C28.2097768 41.94985317 28.2097768 41.94985317 26.7890625 57.0703125 C24.80515328 64.53985024 20.15134794 71.29998811 13.60546875 75.45703125 C6.07745612 78.97999283 -2.90513872 79.76848114 -10.859375 77.22265625 C-17.60786404 73.82537934 -23.09369038 68.19137806 -26.1484375 61.2578125 C-29.89170413 49.15693797 -25.26593701 38.86169921 -19.7109375 28.21875 C-4.71494815 0.14994535 -4.71494815 0.14994535 0 0 Z " fill="#478CF6" transform="translate(266.2109375,284.9296875)"/>
<path d="M0 0 C4.55616831 0.5567483 4.55616831 0.5567483 6.49462891 2.49267578 C7.10443604 3.45923096 7.10443604 3.45923096 7.7265625 4.4453125 C8.19602295 5.18201172 8.6654834 5.91871094 9.14916992 6.67773438 C9.63619385 7.48533203 10.12321777 8.29292969 10.625 9.125 C11.39517456 10.37120117 11.39517456 10.37120117 12.1809082 11.64257812 C30.4207143 41.87954067 30.4207143 41.87954067 29 57 C27.01215153 64.48436924 22.33604538 70.87769552 16.07421875 75.38671875 C9.23521247 79.05737184 1.54451371 78.9266631 -6 78 C-13.58104862 75.63636846 -19.19270494 69.87530246 -23.09765625 63.09375 C-26.37626688 55.65206635 -25.9155579 47.81981205 -23.3125 40.25 C-17.34973133 26.01794756 -9.04018022 12.46212132 0 0 Z " fill="#478CF6" transform="translate(172,285)"/>
<path d="M0 0 C8.58 0 17.16 0 26 0 C26 4.29232909 25.44014483 5.4313795 23.296875 8.9921875 C22.72839844 9.94480469 22.15992188 10.89742187 21.57421875 11.87890625 C20.97222656 12.86761719 20.37023437 13.85632813 19.75 14.875 C19.16347656 15.85597656 18.57695312 16.83695313 17.97265625 17.84765625 C15.59758556 21.80254924 13.225314 25.7284483 10.578125 29.5078125 C8.73250546 31.93079172 8.73250546 31.93079172 9 35 C15.27 35.33 21.54 35.66 28 36 C28 40.79192362 27.25613806 41.27304484 24.0625 44.625 C23.24136719 45.5015625 22.42023438 46.378125 21.57421875 47.28125 C20.72472656 48.1784375 19.87523437 49.075625 19 50 C17.45299536 51.70350096 15.91114965 53.41170401 14.375 55.125 C13.62863281 55.95386719 12.88226563 56.78273438 12.11328125 57.63671875 C10.24701408 59.72376429 8.3997212 61.82491075 6.5625 63.9375 C6.00433594 64.56527344 5.44617188 65.19304687 4.87109375 65.83984375 C3.42743573 67.50653036 2.03284806 69.21580203 0.66015625 70.94140625 C-5.74355601 78.66730255 -5.74355601 78.66730255 -9.640625 79.69921875 C-12.125 79.6875 -12.125 79.6875 -16 79 C-17.23681601 76.10024552 -17.01273053 75.03261426 -15.84423828 72.0390625 C-15.25884277 70.91242188 -14.67344727 69.78578125 -14.0703125 68.625 C-13.7605246 68.01865723 -13.45073669 67.41231445 -13.13156128 66.78759766 C-12.14057429 64.85238509 -11.13371004 62.92602527 -10.125 61 C-9.12620946 59.07269526 -8.13089799 57.14370602 -7.13986206 55.21240234 C-6.23819471 53.45841741 -5.32661449 51.70953893 -4.41455078 49.9609375 C-2.83642065 46.910525 -2.83642065 46.910525 -2 43 C-7.61 43 -13.22 43 -19 43 C-20.12471655 37.37641723 -20.12471655 37.37641723 -18.26171875 34.0234375 C-17.85808105 33.27876221 -17.45444336 32.53408691 -17.03857422 31.7668457 C-16.59271973 30.97753662 -16.14686523 30.18822754 -15.6875 29.375 C-14.76649921 27.68903575 -13.84594002 26.0028302 -12.92578125 24.31640625 C-12.4457666 23.44773926 -11.96575195 22.57907227 -11.47119141 21.68408203 C-9.04550402 17.2585913 -6.71534827 12.78350196 -4.375 8.3125 C-2.209375 4.1978125 -2.209375 4.1978125 0 0 Z " fill="#FCFDFE" transform="translate(389,215)"/>
<path d="M0 0 C10.60357911 4.64493067 15.78966133 16.9029126 20 27 C25.91266969 42.52322978 23.98892281 59.87258635 17.78515625 74.953125 C10.52130799 89.69136786 -2.7706002 100.83126493 -17.78515625 106.9921875 C-27.66035156 110.08793524 -37.37754787 110.52494776 -47.66015625 110.64526367 C-49.39430985 110.67354502 -51.12824793 110.72157563 -52.86132812 110.78881836 C-67.29936106 111.34506887 -67.29936106 111.34506887 -71.50585938 108.01806641 C-73.50508523 105.09481383 -75 102.59549615 -75 99 C-73.36756348 98.98598145 -73.36756348 98.98598145 -71.70214844 98.97167969 C-67.60898027 98.93137484 -63.51653223 98.86551069 -59.42382812 98.79248047 C-57.66285554 98.764503 -55.9017628 98.74317474 -54.140625 98.72900391 C-35.45100682 98.56971739 -20.23182497 94.56884918 -6.28515625 81.3515625 C6.97329332 67.70782466 11.53576808 52.90490797 11.41943359 34.14990234 C11.10378945 22.2348452 7.67135191 13.34645558 1.390625 3.265625 C0 1 0 1 0 0 Z " fill="#377DE3" transform="translate(445,212)"/>
<path d="M0 0 C27.06 0 54.12 0 82 0 C78 7 74 14 70 21 C50.86 21 31.72 21 12 21 C6 10.5 6 10.5 0 0 Z " fill="#E6E7E8" transform="translate(225,383)"/>
<path d="M0 0 C27.06 0 54.12 0 82 0 C78 7 74 14 70 21 C50.86 21 31.72 21 12 21 C6 10.5 6 10.5 0 0 Z " fill="#E6E7E8" transform="translate(133,383)"/>
<path d="M0 0 C8.80269275 4.63058317 14.45868812 14.92710406 18 24 C22.42422601 38.61240844 21.34472583 54.95315026 14.71484375 68.65625 C7.25073375 82.1290725 -4.40918705 91.99384176 -19 97 C-23.73144088 98.22485526 -28.10468381 99 -33 99 C-34.703125 96.8828125 -34.703125 96.8828125 -36.25 94.125 C-36.77078125 93.22007812 -37.2915625 92.31515625 -37.828125 91.3828125 C-39 89 -39 89 -39 87 C-38.21238281 86.86464844 -37.42476563 86.72929687 -36.61328125 86.58984375 C-22.23772318 83.74875713 -10.1250167 77.12542389 -1.3125 65.3125 C6.00579191 54.26822842 10.11460111 41.32567546 9 28 C8.89751953 26.68128906 8.89751953 26.68128906 8.79296875 25.3359375 C7.8624644 17.58514302 5.13162716 11.59758168 1.4609375 4.8359375 C0 2 0 2 0 0 Z " fill="#D2D4D5" transform="translate(362,305)"/>
<path d="M0 0 C0.70107376 0.2869574 1.40214752 0.57391479 2.12446594 0.86956787 C11.77966631 4.66522756 20.4875351 6.59770326 30.86328125 6.609375 C32.60027534 6.63417938 32.60027534 6.63417938 34.37236023 6.65948486 C38.01912984 6.70751471 41.66548392 6.72923579 45.3125 6.75 C47.80666103 6.77819726 50.30080308 6.80812985 52.79492188 6.83984375 C58.86320689 6.91326112 64.93137723 6.96516572 71 7 C67 14 63 21 59 28 C40.78795626 28.54636131 24.37977094 26.33968259 10 14.0625 C6.21941263 10.43737604 2.69891329 6.50877279 0 2 C0 1.34 0 0.68 0 0 Z " fill="#E6E7E8" transform="translate(52,376)"/>
<path d="M0 0 C2.4302267 0.37271837 3.67608431 0.62927188 5.32104492 2.51196289 C5.70365479 3.1589917 6.08626465 3.80602051 6.48046875 4.47265625 C6.9180249 5.19960693 7.35558105 5.92655762 7.80639648 6.67553711 C8.49004272 7.85708374 8.49004272 7.85708374 9.1875 9.0625 C9.66582275 9.87017822 10.14414551 10.67785645 10.63696289 11.51000977 C12.10435096 13.9992897 13.55248959 16.49912296 15 19 C15.85898447 20.45595964 16.7183385 21.91170134 17.578125 23.3671875 C24.25603255 34.79298717 29.92253631 45.30405552 28 59 C25.5250919 67.17746132 20.42513158 72.76800672 13.1640625 77.09375 C6.43971381 80.15801016 -1.87672826 80.32351932 -8.84765625 78.0859375 C-14.19980385 75.58342505 -18.1950779 72.50582881 -22 68 C-22 67.34 -22 66.68 -22 66 C-21.18917969 66.16757812 -20.37835938 66.33515625 -19.54296875 66.5078125 C-11.18367023 68.04537847 -3.44688947 68.93294048 4.28515625 64.76953125 C10.74813735 60.26356499 14.93202394 54.87652195 16.73828125 47.1875 C18.42566719 33.08397571 10.37889349 20.30092117 3.6081543 8.47583008 C3.1419165 7.66138428 2.67567871 6.84693848 2.1953125 6.0078125 C1.77266113 5.28223145 1.35000977 4.55665039 0.91455078 3.80908203 C0 2 0 2 0 0 Z " fill="#387EE3" transform="translate(219,378)"/>
<path d="M0 0 C1.75415039 0.13525391 1.75415039 0.13525391 4 1 C5.93530273 3.50927734 5.93530273 3.50927734 7.93359375 6.8359375 C8.29340836 7.4299234 8.65322296 8.0239093 9.02394104 8.63589478 C9.78527396 9.89842675 10.54057882 11.16461043 11.2902832 12.43408203 C12.41740225 14.34099764 13.56316246 16.23555678 14.71289062 18.12890625 C22.47832237 31.02421901 29.73266071 43.49724627 28 59 C25.56566264 67.17484453 20.40437701 72.78037114 13.1640625 77.09375 C6.43971381 80.15801016 -1.87672826 80.32351932 -8.84765625 78.0859375 C-14.19980385 75.58342505 -18.1950779 72.50582881 -22 68 C-22 67.34 -22 66.68 -22 66 C-21.18917969 66.16757812 -20.37835938 66.33515625 -19.54296875 66.5078125 C-11.18367023 68.04537847 -3.44688947 68.93294048 4.28515625 64.76953125 C10.53611488 60.41138626 15.30979459 54.85298047 16.765625 47.1953125 C18.38670812 32.01116723 9.59825044 17.74505787 1.46875 5.50390625 C0 3 0 3 0 0 Z " fill="#387EE3" transform="translate(311,378)"/>
<path d="M0 0 C2.4302267 0.37271837 3.67608431 0.62927188 5.32104492 2.51196289 C5.70365479 3.1589917 6.08626465 3.80602051 6.48046875 4.47265625 C6.9180249 5.19960693 7.35558105 5.92655762 7.80639648 6.67553711 C8.49004272 7.85708374 8.49004272 7.85708374 9.1875 9.0625 C9.66582275 9.87017822 10.14414551 10.67785645 10.63696289 11.51000977 C12.10435096 13.9992897 13.55248959 16.49912296 15 19 C15.85898447 20.45595964 16.7183385 21.91170134 17.578125 23.3671875 C24.25603255 34.79298717 29.92253631 45.30405552 28 59 C25.52942464 67.16314531 20.42479441 72.8289302 13.12890625 77.09375 C5.78298697 80.39254119 -2.82414278 80.08179052 -10.3125 77.4375 C-15.09137981 75.28352994 -18.86541959 72.21403856 -22 68 C-22 67.34 -22 66.68 -22 66 C-21.18917969 66.16757812 -20.37835938 66.33515625 -19.54296875 66.5078125 C-11.19895421 68.04256721 -3.35030756 68.99941484 4.3203125 64.69921875 C11.48933967 59.58037462 15.65089141 53.67875538 17.39453125 45.046875 C18.56697977 30.75936276 7.74062914 15.52766032 0.91455078 3.80908203 C0 2 0 2 0 0 Z " fill="#387EE3" transform="translate(127,378)"/>
<path d="M0 0 C2.42424255 0.37593654 3.6897856 0.66472497 5.38110352 2.49267578 C5.79287842 3.1370459 6.20465332 3.78141602 6.62890625 4.4453125 C7.10158936 5.18201172 7.57427246 5.91871094 8.0612793 6.67773438 C8.55668213 7.48533203 9.05208496 8.29292969 9.5625 9.125 C10.08046143 9.95580078 10.59842285 10.78660156 11.13208008 11.64257812 C29.43507908 41.72665836 29.43507908 41.72665836 28 57 C26.01609078 64.46953774 21.36228544 71.22967561 14.81640625 75.38671875 C7.30919999 78.89994335 -1.83353492 79.81123201 -9.71875 77.046875 C-14.14788509 74.71419719 -17.78918692 71.83226078 -21 68 C-21 67.34 -21 66.68 -21 66 C-19.95585937 66.23783203 -19.95585937 66.23783203 -18.890625 66.48046875 C-8.24213676 68.39431866 -0.31359996 66.87425452 8.75 61.3125 C14.35918325 55.54750611 16.9323769 49.24613679 17.24609375 41.2109375 C16.36068508 29.65846241 9.64410441 19.11770275 4.20703125 9.15234375 C2.58596272 6.1646884 1.15446744 3.20542077 0 0 Z " fill="#397FE2" transform="translate(265,285)"/>
<path d="M0 0 C2.42424255 0.37593654 3.6897856 0.66472497 5.38110352 2.49267578 C5.79287842 3.1370459 6.20465332 3.78141602 6.62890625 4.4453125 C7.10158936 5.18201172 7.57427246 5.91871094 8.0612793 6.67773438 C8.55668213 7.48533203 9.05208496 8.29292969 9.5625 9.125 C10.08046143 9.95580078 10.59842285 10.78660156 11.13208008 11.64257812 C29.43507908 41.72665836 29.43507908 41.72665836 28 57 C26.01215153 64.48436924 21.33604538 70.87769552 15.07421875 75.38671875 C8.24532861 79.05194227 0.53361205 78.94782972 -7 78 C-12.69659884 76.05326314 -17.15906125 72.58434625 -21 68 C-21 67.34 -21 66.68 -21 66 C-20.31292969 66.15726562 -19.62585938 66.31453125 -18.91796875 66.4765625 C-10.28010049 68.02605962 -1.8561073 68.09209484 5.875 63.62890625 C11.03593452 59.67282225 15.10239234 53.84009634 16.58984375 47.4765625 C18.33918143 33.12806239 10.84590021 21.32041848 4.20703125 9.15234375 C2.58596272 6.1646884 1.15446744 3.20542077 0 0 Z " fill="#397FE2" transform="translate(173,285)"/>
<path d="M0 0 C22.77 0 45.54 0 69 0 C67.02 3.63 65.04 7.26 63 11 C43.86 11 24.72 11 5 11 C0 2 0 2 0 0 Z " fill="#D2D4D5" transform="translate(232,393)"/>
<path d="M0 0 C22.77 0 45.54 0 69 0 C67.02 3.63 65.04 7.26 63 11 C43.86 11 24.72 11 5 11 C0 2 0 2 0 0 Z " fill="#D2D4D5" transform="translate(140,393)"/>
<path d="M0 0 C1.9375 1.0625 1.9375 1.0625 3 3 C3.51119494 7.35988409 3.46070538 9.34826784 0.89208984 12.98193359 C-0.06616866 13.97263003 -1.04457293 14.94411613 -2.0390625 15.8984375 C-2.55753754 16.41886627 -3.07601257 16.93929504 -3.61019897 17.47549438 C-4.70651915 18.56782787 -5.8114547 19.65157452 -6.92431641 20.72705078 C-8.62011834 22.37026971 -10.28159542 24.04317358 -11.94140625 25.72265625 C-13.01373239 26.78316712 -14.08789344 27.8418265 -15.1640625 28.8984375 C-15.65806549 29.39628754 -16.15206848 29.89413757 -16.66104126 30.40707397 C-19.95419513 33.54782267 -22.41798543 34.91507439 -27 35 C-29.9375 32.9375 -29.9375 32.9375 -32 30 C-31.9001175 24.61101236 -29.56446147 21.80175794 -25.8984375 18.1640625 C-25.38374908 17.63984711 -24.86906067 17.11563171 -24.33877563 16.57553101 C-23.25057531 15.47520691 -22.1558821 14.38127074 -21.05517578 13.29345703 C-19.37961736 11.62958515 -17.73857533 9.93624157 -16.09765625 8.23828125 C-15.03319425 7.16993428 -13.96684732 6.10346141 -12.8984375 5.0390625 C-12.41273285 4.53291412 -11.9270282 4.02676575 -11.42660522 3.50527954 C-7.69057012 -0.10842821 -5.09625127 -0.59753374 0 0 Z " fill="#FFA819" transform="translate(298,93)"/>
<path d="M0 0 C2.21080363 1.62465559 3.91676269 3.09638759 5.80078125 5.0390625 C6.58354683 5.81677505 6.58354683 5.81677505 7.38212585 6.61019897 C8.47926907 7.70764047 9.56898486 8.81255159 10.65161133 9.92431641 C12.30566495 11.61800118 13.98700808 13.28042371 15.67382812 14.94140625 C16.73874026 16.01387919 17.80195084 17.08804493 18.86328125 18.1640625 C19.61476189 18.90506699 19.61476189 18.90506699 20.38142395 19.66104126 C23.54160816 22.95137689 24.91841981 25.40524424 25 30 C22.9375 32.9375 22.9375 32.9375 20 35 C14.59557371 34.90404405 11.79813612 32.54873256 8.1640625 28.86328125 C7.37773941 28.08769112 7.37773941 28.08769112 6.57553101 27.2964325 C5.47527997 26.2039381 4.38134263 25.1050524 3.29345703 24.00024414 C1.62806625 22.31560169 -0.06461733 20.66238755 -1.76171875 19.00976562 C-2.829899 17.9418757 -3.89636642 16.87226916 -4.9609375 15.80078125 C-5.46708588 15.30991531 -5.97323425 14.81904938 -6.49472046 14.31330872 C-8.93796324 11.78695972 -9.95967392 10.31119162 -10.41650391 6.78588867 C-10 4 -10 4 -8.375 1.625 C-5.25138408 -0.51221089 -3.7399903 -0.48465047 0 0 Z " fill="#FFA919" transform="translate(114,93)"/>
<path d="M0 0 C1.2148407 -0.00430527 1.2148407 -0.00430527 2.45422363 -0.00869751 C4.16561584 -0.01073792 5.87703138 -0.00520959 7.58837891 0.00732422 C10.2091889 0.02337893 12.82845677 0.00747556 15.44921875 -0.01171875 C17.11198257 -0.00973631 18.77474544 -0.00589263 20.4375 0 C21.22193481 -0.00607269 22.00636963 -0.01214539 22.8145752 -0.0184021 C28.22169457 0.05155994 28.22169457 0.05155994 30.68554688 1.77099609 C32.10854358 4.01241765 32.52509945 5.75187999 32.71875 8.3984375 C31.74144781 11.10481279 31.31362555 12.10099972 28.71875 13.3984375 C25.98242689 13.52173737 23.27254021 13.58682896 20.53515625 13.6015625 C19.31819313 13.61011261 19.31819313 13.61011261 18.0766449 13.61883545 C16.35929673 13.62828736 14.64193041 13.63482019 12.92456055 13.63867188 C10.29508951 13.64838637 7.66639717 13.67941068 5.03710938 13.7109375 C3.36979632 13.71746668 1.70247766 13.72271748 0.03515625 13.7265625 C-1.14620155 13.7450827 -1.14620155 13.7450827 -2.35142517 13.76397705 C-7.75454438 13.74188795 -7.75454438 13.74188795 -10.27758789 12.09667969 C-11.99164035 9.19642454 -11.63102077 6.66296467 -11.28125 3.3984375 C-8.78552151 -0.80432081 -4.34738839 -0.03365526 0 0 Z " fill="#FFA81A" transform="translate(77.28125,184.6015625)"/>
<path d="M0 0 C1.69604492 1.00585938 1.69604492 1.00585938 3 3 C3.286155 5.8356553 3.3965575 8.44696491 3.36328125 11.28125 C3.36377975 12.0911438 3.36427826 12.9010376 3.36479187 13.73547363 C3.36245258 15.4468837 3.35273255 17.15829728 3.33618164 18.86962891 C3.31258804 21.49022158 3.31562167 24.10979685 3.32226562 26.73046875 C3.31668876 28.39323524 3.30957883 30.05599744 3.30078125 31.71875 C3.30214836 32.89540222 3.30214836 32.89540222 3.30354309 34.0958252 C3.25368827 37.91839646 3.17016688 39.74474967 1 43 C-1.3125 43.875 -1.3125 43.875 -4 44 C-6.2831838 42.8584081 -8.19012683 41.80987317 -10 40 C-10.12583114 37.29615576 -10.18865935 34.61924203 -10.203125 31.9140625 C-10.20882507 31.10133881 -10.21452515 30.28861511 -10.22039795 29.45126343 C-10.22986234 27.72793892 -10.23638762 26.0045962 -10.24023438 24.28125 C-10.24993416 21.64290784 -10.28094072 19.00534641 -10.3125 16.3671875 C-10.31903035 14.69531714 -10.3242807 13.02344119 -10.328125 11.3515625 C-10.3404718 10.56085358 -10.3528186 9.77014465 -10.36553955 8.95547485 C-10.34344507 3.52727708 -10.34344507 3.52727708 -8.69824219 1.00146484 C-5.79728423 -0.70924958 -3.26371856 -0.34968413 0 0 Z " fill="#FFA919" transform="translate(206,55)"/>
<path d="M0 0 C1.08539063 0.49371094 2.17078125 0.98742187 3.2890625 1.49609375 C4.73421099 2.14359535 6.17953273 2.79071036 7.625 3.4375 C8.33785156 3.76298828 9.05070312 4.08847656 9.78515625 4.42382812 C10.48769531 4.73642578 11.19023438 5.04902344 11.9140625 5.37109375 C12.5529541 5.65911865 13.1918457 5.94714355 13.85009766 6.24389648 C19.2366432 8.13830161 24.80871414 8.19153619 30.4609375 8.31640625 C31.25150543 8.33718735 32.04207336 8.35796844 32.8565979 8.37937927 C35.36265017 8.44435582 37.86880024 8.50351643 40.375 8.5625 C42.08204105 8.60573468 43.78907249 8.64935049 45.49609375 8.69335938 C49.66396426 8.7999834 53.83193239 8.90139441 58 9 C56.02 12.63 54.04 16.26 52 20 C32.81707854 20.57548764 16.1285163 17.89331585 1.2578125 4.578125 C0 3 0 3 0 0 Z " fill="#D3D5D6" transform="translate(59,384)"/>
<path d="M0 0 C2.625 0.9375 2.625 0.9375 5 2 C5.042721 3.66611905 5.04063832 5.33382885 5 7 C4 8 4 8 1.5625 8.1875 C-1 8 -1 8 -3 6 C-2.75 3.4375 -2.75 3.4375 -2 1 C-1.34 0.67 -0.68 0.34 0 0 Z " fill="#FEFEFE" transform="translate(61,365)"/>
</svg>
